<svg xmlns="http://www.w3.org/2000/svg" width="500" height="500" viewBox="0 0 500 500" version="1.1"><path d="M 222.500 28.528 C 172.336 34.428, 125.540 57.255, 89.456 93.427 C 55.067 127.900, 33.935 169.728, 26.352 218.337 C 23.921 233.918, 23.907 266.318, 26.324 282 C 36.248 346.376, 72.198 401.835, 127.339 437.831 C 145.289 449.549, 169.292 460.131, 191 465.897 C 211.595 471.367, 225.918 473.141, 249.574 473.152 C 273.564 473.163, 285.957 471.723, 306.500 466.534 C 369.667 450.580, 424.275 406.666, 452.706 348.962 C 467.350 319.240, 474.422 291.239, 475.678 258 C 478.915 172.359, 431.579 91.792, 355 52.603 C 332.836 41.260, 315.670 35.263, 292 30.592 C 273.445 26.930, 243.614 26.044, 222.500 28.528 M 229.500 72.487 C 191.837 76.775, 157.381 92.182, 128.763 117.534 C 53.725 184.006, 48.825 300.014, 118 372.341 C 153.734 409.703, 198.689 429, 250 429 C 321.079 429, 383.349 389.855, 413.884 325.977 C 424.614 303.531, 429.738 282.361, 430.709 256.465 C 431.563 233.678, 429.088 216.251, 421.908 194.500 C 412.021 164.551, 394.827 138.397, 371.189 117.351 C 342.286 91.618, 305.720 75.781, 266.576 72.043 C 253.091 70.755, 243.726 70.867, 229.500 72.487 M 214.430 95.046 C 156.639 102.595, 106.082 147.855, 88.814 207.500 C 83.916 224.417, 82.669 235.160, 83.301 254.991 C 84.241 284.490, 91.849 310.417, 106.857 335.263 C 131.996 376.882, 172.203 404.915, 215.367 410.918 C 224.300 412.161, 233.011 412.304, 234.573 411.235 C 236.482 409.927, 236.883 407.278, 235.475 405.268 C 234.351 403.663, 232.459 403.190, 225.067 402.665 C 192.940 400.385, 164.777 386.939, 140 362.051 C 126.107 348.096, 116.963 335.515, 109.073 319.500 C 102.153 305.455, 97.985 293.577, 94.861 279 C 91.872 265.048, 91.588 237.148, 94.300 223.730 C 100.879 191.173, 118.131 160.766, 142.286 139.150 C 166.130 117.813, 193.916 105.767, 224.635 103.449 C 229.659 103.070, 234.328 102.415, 235.010 101.994 C 236.683 100.960, 236.588 95.986, 234.875 94.902 C 233.239 93.865, 222.912 93.939, 214.430 95.046 M 245.250 225.662 C 243.290 226.453, 243.787 228, 246 228 C 247.919 228, 248 228.667, 248 244.521 L 248 261.043 245.531 262.168 C 241.334 264.080, 243.745 265, 252.952 265 C 259.715 265, 261.915 264.663, 262.338 263.561 C 262.721 262.565, 262.061 262.027, 260.195 261.811 C 257.626 261.515, 257.486 261.207, 257.202 255.250 L 256.905 249 259.702 249.019 C 262.164 249.036, 262.994 249.967, 266.609 256.769 L 270.719 264.500 276.359 264.800 C 280.729 265.032, 282 264.777, 282 263.667 C 282 262.878, 281.207 262.026, 280.238 261.773 C 279.270 261.519, 276.751 258.517, 274.643 255.100 L 270.808 248.888 274.404 245.396 C 281.302 238.697, 278.527 228.630, 269.057 225.999 C 265.441 224.995, 247.532 224.741, 245.250 225.662 M 163 226.883 C 163 227.369, 163.900 228.002, 165 228.290 C 166.896 228.785, 167 229.654, 167 244.928 L 167 261.043 164.531 262.168 C 160.269 264.110, 162.791 265, 172.559 265 C 180.090 265, 182 264.710, 182 263.566 C 182 262.746, 180.824 261.998, 179.250 261.816 C 176.587 261.510, 176.491 261.286, 176.204 254.750 L 175.909 248 184.454 248 L 193 248 193 254.339 C 193 260.131, 192.784 260.777, 190.500 261.818 C 185.667 264.020, 187.824 265, 197.500 265 C 205.278 265, 207 264.728, 207 263.500 C 207 262.567, 206.056 262, 204.500 262 L 202 262 202 245.500 C 202 236.425, 202.364 229, 202.809 229 C 203.254 229, 204.491 228.339, 205.559 227.532 C 207.309 226.208, 206.541 226.060, 197.750 226.032 C 188.429 226.001, 185.166 227.072, 190.500 228.411 C 192.868 229.005, 193 229.407, 193 236.019 L 193 243 184.500 243 L 176 243 176 236 C 176 232.150, 176.364 229, 176.809 229 C 177.254 229, 178.491 228.339, 179.559 227.532 C 181.311 226.206, 180.602 226.061, 172.250 226.032 C 167.162 226.014, 163 226.398, 163 226.883 M 260.250 229.723 L 257 230.127 257 237.563 L 257 245 261.345 245 C 266.848 245, 269.455 242.428, 269.455 237 C 269.455 233.136, 266.791 228.839, 264.595 229.160 C 263.993 229.248, 262.038 229.502, 260.250 229.723 M 294.333 236.066 C 287.637 238.070, 282.971 247.466, 284.975 254.909 C 286.265 259.697, 291.452 264.487, 296.342 265.404 C 299.117 265.925, 301.062 265.496, 305.025 263.487 C 307.876 262.043, 309.938 260.369, 309.691 259.699 C 309.449 259.040, 308.631 258.680, 307.875 258.899 C 300.812 260.950, 296.569 259.981, 293.973 255.723 C 290.709 250.370, 291.118 250, 300.300 250 C 310.860 250, 312.878 248.216, 309.846 241.561 C 307.629 236.694, 300.578 234.197, 294.333 236.066 M 323.643 236.028 C 316.989 238.022, 313.601 243.813, 314.205 252.161 C 314.549 256.912, 315.167 258.565, 317.516 261.017 C 319.105 262.675, 322.194 264.514, 324.382 265.103 C 327.813 266.027, 329.021 265.864, 333.179 263.916 C 339.239 261.078, 339.717 258.702, 334.047 259.608 C 328.449 260.504, 325.271 259.425, 323.518 256.035 C 320.836 250.848, 322.214 240, 325.555 240 C 326.233 240, 328.132 241.255, 329.775 242.790 L 332.761 245.579 336.004 243.357 L 339.248 241.134 336.610 238.689 C 335.159 237.345, 332.572 235.964, 330.861 235.622 C 327.279 234.906, 327.413 234.898, 323.643 236.028 M 208 238.263 C 208 238.957, 208.968 239.970, 210.151 240.513 C 211.699 241.223, 213.332 244.407, 215.980 251.873 C 218.708 259.566, 220.271 262.575, 222.030 263.516 L 224.401 264.785 220.951 266.913 C 219.053 268.084, 216.488 269.306, 215.250 269.629 C 212.560 270.332, 212.459 271.276, 214.677 275.030 C 216.252 277.697, 216.513 277.786, 219.002 276.499 C 222.461 274.710, 228.407 268.083, 230.849 263.295 C 231.913 261.208, 233.996 255.450, 235.478 250.500 C 237.082 245.142, 238.946 240.945, 240.086 240.128 C 243.454 237.714, 242.178 237, 234.500 237 C 227.184 237, 225.274 237.935, 228.688 239.845 C 230.266 240.728, 230.254 241.320, 228.513 248.944 C 226.473 257.876, 225.390 259.561, 224.434 255.291 C 224.090 253.756, 223.100 249.850, 222.234 246.611 C 220.777 241.165, 220.784 240.631, 222.329 239.501 C 223.248 238.829, 224 237.992, 224 237.640 C 224 237.288, 220.400 237, 216 237 C 210.223 237, 208 237.351, 208 238.263 M 295.048 241.179 C 291.435 245.057, 292.320 246.547, 297.999 246.153 C 304.158 245.727, 304.745 243.008, 299.298 240.140 C 297.438 239.161, 296.778 239.322, 295.048 241.179" stroke="none" fill="#dc3545" fill-rule="evenodd"/><path d="M 227 73.023 C 172.173 80.604, 124.363 111.244, 95.906 157.039 C 72.426 194.822, 64.099 241.728, 73.040 285.836 C 81.031 325.260, 104.055 363.204, 135 387.947 C 184.586 427.596, 248.557 439.263, 307.826 419.466 C 367.864 399.413, 412.792 349.864, 426.424 288.669 C 435.375 248.490, 430.247 207.972, 411.470 170.500 C 403.308 154.213, 394.327 141.525, 381.500 128.161 C 364.036 109.965, 346.584 97.576, 324.203 87.485 C 310.993 81.529, 303.056 78.997, 286.196 75.361 C 276.355 73.238, 271.249 72.782, 254 72.482 C 242.725 72.285, 230.575 72.529, 227 73.023 M 219 94.171 C 201.762 95.801, 178.434 102.933, 165.095 110.650 C 153.785 117.193, 141.751 126.260, 132.252 135.395 C 104.456 162.125, 87.976 194.917, 83.271 232.856 C 81.845 244.358, 81.781 248.175, 82.816 260.356 C 84.284 277.635, 85.963 285.977, 91.069 301.361 C 111.867 364.025, 167.845 410.094, 225.752 412.202 C 235.176 412.546, 237.768 411.195, 236.602 406.549 C 235.781 403.278, 232.584 402.002, 225.185 401.992 C 211.864 401.975, 194.470 397.346, 178.500 389.569 C 148.854 375.133, 124.285 350.008, 109.001 318.500 C 87.214 273.587, 86.888 227.080, 108.062 184.854 C 131.406 138.303, 175.118 107.589, 222.942 104.133 C 229.297 103.674, 234.536 102.800, 235.441 102.049 C 239.040 99.062, 235.586 92.797, 230.527 93.136 C 229.412 93.211, 224.225 93.676, 219 94.171 M 162.500 226 C 161.577 227.494, 162.861 229, 165.059 229 C 166.899 229, 167 229.827, 167 244.839 L 167 260.679 164.500 261.818 C 159.603 264.049, 161.843 265, 172 265 C 180.165 265, 182 264.728, 182 263.519 C 182 262.705, 180.875 261.756, 179.500 261.411 C 177.160 260.823, 177 260.375, 177 254.392 L 177 248 185 248 L 193 248 193 253.974 C 193 259.615, 192.831 260.036, 189.967 261.517 C 188.299 262.379, 187.201 263.516, 187.526 264.043 C 187.852 264.569, 192.591 265, 198.059 265 C 205.982 265, 208 264.712, 208 263.579 C 208 262.798, 206.650 261.862, 205 261.500 L 202 260.841 202 245.399 L 202 229.957 204.500 228.818 C 205.875 228.192, 207 227.076, 207 226.339 C 207 225.314, 204.772 225, 197.500 225 C 188.667 225, 188 225.140, 188 227 C 188 228.476, 188.667 229, 190.546 229 C 193.051 229, 193.087 229.107, 192.796 235.750 L 192.500 242.500 184.750 242.792 L 177 243.084 177 236.109 C 177 230.013, 177.252 229.055, 179 228.500 C 180.100 228.151, 181 227.221, 181 226.433 C 181 225.296, 179.153 225, 172.059 225 C 167.141 225, 162.840 225.450, 162.500 226 M 244 227 C 244 228.333, 244.667 229, 246 229 C 247.916 229, 248 229.667, 248 244.839 L 248 260.679 245.500 261.818 C 240.603 264.049, 242.843 265, 253 265 C 261.165 265, 263 264.728, 263 263.519 C 263 262.705, 261.875 261.756, 260.500 261.411 C 258.220 260.838, 258 260.309, 258 255.392 C 258 250.464, 258.194 250.001, 260.250 250.008 C 262.025 250.015, 263.343 251.600, 266.492 257.508 L 270.483 265 276.742 265 C 281.421 265, 283 264.649, 283 263.608 C 283 262.843, 281.988 261.949, 280.750 261.621 C 279.362 261.253, 277.126 258.667, 274.916 254.874 L 271.332 248.723 274.728 245.611 C 281.167 239.710, 279.696 230.456, 271.717 226.670 C 269.032 225.396, 265.329 225, 256.099 225 C 244.667 225, 244 225.110, 244 227 M 258 237.632 L 258 245.263 262.215 244.698 C 267.114 244.041, 269 241.968, 269 237.243 C 269 231.615, 267.542 230, 262.465 230 L 258 230 258 237.632 M 293.500 235.943 C 287.599 238.350, 283.369 246.259, 284.294 253.155 C 285.747 263.987, 295.592 268.774, 305.789 263.607 C 309.558 261.697, 310.775 260.577, 310.333 259.425 C 309.881 258.247, 309.072 258.046, 307.114 258.625 C 301.873 260.177, 297.812 259.483, 295.343 256.613 C 291.289 251.899, 292.089 251, 300.345 251 C 308.441 251, 311 249.533, 311 244.894 C 311 237.949, 301.053 232.861, 293.500 235.943 M 321 236.762 C 317.098 238.864, 313 245.744, 313 250.192 C 313 261.717, 324.038 269.082, 333.827 264.088 C 336.122 262.917, 338 261.251, 338 260.386 C 338 259.079, 337.178 258.925, 333.142 259.480 C 328.930 260.060, 327.920 259.835, 325.544 257.791 C 322.008 254.750, 321.001 247.833, 323.414 243.166 C 324.315 241.425, 325.249 240, 325.491 240 C 325.733 240, 327.511 241.388, 329.443 243.084 L 332.955 246.168 335.978 244.016 C 339.636 241.411, 339.675 240.983, 336.533 238.031 C 333.121 234.826, 325.717 234.221, 321 236.762 M 208 237.933 C 208 238.996, 208.813 240.123, 209.808 240.439 C 211.034 240.828, 212.881 244.550, 215.551 252.016 C 218.157 259.301, 220.080 263.208, 221.243 263.577 C 224.110 264.487, 223.300 265.522, 217.750 268.040 C 214.863 269.349, 212.336 270.528, 212.136 270.658 C 211.566 271.028, 216.075 278, 216.885 278 C 218.809 278, 226.202 271.410, 228.975 267.223 C 230.691 264.633, 233.679 257.485, 235.615 251.338 C 237.550 245.192, 239.779 239.915, 240.567 239.613 C 241.355 239.310, 242 238.374, 242 237.531 C 242 236.292, 240.568 236, 234.500 236 C 227.808 236, 227 236.204, 227 237.893 C 227 238.934, 227.627 240.027, 228.393 240.321 C 229.575 240.774, 229.585 241.814, 228.459 247.178 C 226.201 257.940, 225.932 258.031, 223.304 248.929 C 221.183 241.582, 221.085 240.532, 222.454 239.766 C 223.304 239.290, 224 238.248, 224 237.450 C 224 236.304, 222.323 236, 216 236 C 208.760 236, 208 236.184, 208 237.933 M 294.557 242.223 C 292.200 245.588, 292.576 246, 298 246 C 303.424 246, 303.800 245.588, 301.443 242.223 C 299.454 239.383, 296.546 239.383, 294.557 242.223" stroke="none" fill="#fbfbfb" fill-rule="evenodd"/></svg>